<svg width="24" height="24" viewBox="0 0 24 24" fill="none" xmlns="http://www.w3.org/2000/svg">
<path d="M7.66459 15.3292C8.03294 15.145 8.4804 15.2924 8.6676 15.6582L8.66912 15.661C8.67225 15.6667 8.67912 15.6789 8.68992 15.6967C8.71157 15.7324 8.74876 15.79 8.80313 15.8625C8.91211 16.0078 9.08796 16.2099 9.34352 16.4143C9.84512 16.8156 10.6822 17.25 12 17.25C13.3178 17.25 14.1549 16.8156 14.6565 16.4143C14.912 16.2099 15.0879 16.0078 15.1969 15.8625C15.2512 15.79 15.2884 15.7324 15.3101 15.6967C15.3209 15.6789 15.3277 15.6667 15.3309 15.661L15.3324 15.6582C15.5196 15.2924 15.9671 15.145 16.3354 15.3292C16.7059 15.5144 16.8561 15.9649 16.6708 16.3354L16 16C16.6708 16.3354 16.671 16.335 16.6708 16.3354L16.67 16.3371L16.669 16.3389L16.6669 16.3432L16.6613 16.3539C16.6571 16.3621 16.6517 16.3721 16.6452 16.3839C16.6322 16.4075 16.6147 16.4383 16.5923 16.4752C16.5475 16.5489 16.4831 16.6475 16.3969 16.7625C16.2246 16.9922 15.963 17.2901 15.5935 17.5857C14.8451 18.1844 13.6822 18.75 12 18.75C10.3178 18.75 9.15488 18.1844 8.40648 17.5857C8.03704 17.2901 7.77539 16.9922 7.60313 16.7625C7.51687 16.6475 7.4525 16.5489 7.40774 16.4752C7.38534 16.4383 7.36778 16.4075 7.3548 16.3839L7.34539 16.3666L7.33869 16.3539L7.33313 16.3432L7.33095 16.3389L7.33002 16.3371C7.32981 16.3367 7.32918 16.3354 8 16L7.32918 16.3354C7.14394 15.9649 7.29411 15.5144 7.66459 15.3292Z" fill="white"/>
<path d="M10 9.5C10 10.3284 9.32843 11 8.5 11C7.67157 11 7 10.3284 7 9.5C7 8.67157 7.67157 8 8.5 8C9.32843 8 10 8.67157 10 9.5Z" fill="white"/>
<path d="M15.5 11C16.3284 11 17 10.3284 17 9.5C17 8.67157 16.3284 8 15.5 8C14.6716 8 14 8.67157 14 9.5C14 10.3284 14.6716 11 15.5 11Z" fill="white"/>
<path fill-rule="evenodd" clip-rule="evenodd" d="M22 12C22 17.5228 17.5228 22 12 22C6.47715 22 2 17.5228 2 12C2 6.47715 6.47715 2 12 2C17.5228 2 22 6.47715 22 12ZM20.5 12C20.5 16.6944 16.6944 20.5 12 20.5C7.30558 20.5 3.5 16.6944 3.5 12C3.5 7.30558 7.30558 3.5 12 3.5C16.6944 3.5 20.5 7.30558 20.5 12Z" fill="white"/>
</svg>
