<svg width="24" height="24" viewBox="0 0 24 24" fill="none" xmlns="http://www.w3.org/2000/svg">
<path fill-rule="evenodd" clip-rule="evenodd" d="M21.75 9.66597C21.9297 8.96786 21.6775 8.17407 20.9846 7.74029L12.9287 2.69654C12.3606 2.3409 11.6394 2.3409 11.0713 2.69654L3.01535 7.74029C1.89531 8.44153 1.92681 10.0836 3.07292 10.7414L4.74997 11.7038V18.3525C4.74997 19.6764 6.13492 20.4876 7.28657 19.9989C8.64741 19.4215 10.5617 18.75 12 18.75C13.4382 18.75 15.3525 19.4215 16.7134 19.9989C17.865 20.4876 19.25 19.6764 19.25 18.3525V11.7039L20.25 11.1299V15C20.25 15.4142 20.5858 15.75 21 15.75C21.4142 15.75 21.75 15.4142 21.75 15V9.66597ZM12.1327 3.96791C12.0515 3.91711 11.9485 3.91711 11.8673 3.96791L3.81134 9.01167C3.65134 9.11184 3.65583 9.34642 3.81957 9.44039L11.8756 14.0638C11.9526 14.1081 12.0474 14.1081 12.1244 14.0638L20.1804 9.44039C20.2082 9.42444 20.2314 9.40445 20.25 9.38175V9.06541C20.2333 9.04506 20.2129 9.02682 20.1887 9.01166L12.1327 3.96791ZM12.8711 15.3648L17.75 12.5647V18.3525C17.75 18.4434 17.705 18.5286 17.6109 18.5882C17.5143 18.6494 17.3995 18.6606 17.2993 18.6181C15.9356 18.0394 13.7718 17.25 12 17.25C10.2281 17.25 8.06436 18.0394 6.70066 18.6181C6.60046 18.6606 6.48563 18.6494 6.38908 18.5882C6.29496 18.5286 6.24997 18.4434 6.24997 18.3525V12.5647L11.1289 15.3648C11.6684 15.6744 12.3316 15.6744 12.8711 15.3648Z" fill="white"/>
</svg>
