<svg width="24" height="24" viewBox="0 0 24 24" fill="none" xmlns="http://www.w3.org/2000/svg">
<path fill-rule="evenodd" clip-rule="evenodd" d="M11.25 16.25H7.60313C5.31808 16.25 3.61193 14.9485 3.13193 13.2685C2.89195 12.4286 2.97151 11.5166 3.4353 10.6999C3.81101 10.0384 4.41691 9.47627 5.23676 9.06139C4.9078 7.24818 5.29533 5.65592 6.13784 4.40835C7.06642 3.03335 8.51813 2.11948 10.0619 1.76862C11.6067 1.41754 13.2932 1.62026 14.6773 2.54907C15.9458 3.4003 16.8874 4.81205 17.2538 6.78788C19.8135 7.09304 21.2281 9.19181 21.2281 11.3125C21.2281 12.4574 20.8215 13.628 19.965 14.5496C19.1034 15.4768 17.8273 16.1089 16.1654 16.2474C16.1447 16.2491 16.1239 16.25 16.1031 16.25H12.75V19.9594L15.2371 20.7885C15.6301 20.9194 15.8425 21.3442 15.7115 21.7371C15.5805 22.1301 15.1557 22.3425 14.7628 22.2115L12 21.2905L9.23713 22.2115C8.84417 22.3425 8.41943 22.1301 8.28845 21.7371C8.15746 21.3442 8.36983 20.9194 8.76279 20.7885L11.25 19.9594V16.25ZM6.82781 9.30673C6.38131 7.63233 6.69498 6.26357 7.38093 5.24784C8.07735 4.2166 9.18814 3.50546 10.3944 3.23132C11.5996 2.95741 12.8506 3.12969 13.8415 3.79462C14.8181 4.45002 15.6295 5.64302 15.8583 7.5876C15.9027 7.96531 16.2228 8.24997 16.6031 8.24997C18.6335 8.24997 19.7281 9.73153 19.7281 11.3125C19.7281 12.1051 19.4473 12.9032 18.8662 13.5285C18.2947 14.1435 17.3927 14.6336 16.0711 14.75H13.0263C13.0326 14.7369 13.0391 14.7237 13.0458 14.7104C13.3281 14.1457 13.7 13.75 14.25 13.75C14.6642 13.75 15 13.4142 15 13C15 12.5858 14.6642 12.25 14.25 12.25C13.1082 12.25 12.3986 12.9346 11.9811 13.5603C11.8494 13.4387 11.7106 13.3264 11.5741 13.2243C11.0409 12.8256 10.431 12.5019 10.0854 12.3292C9.71489 12.1439 9.26438 12.2941 9.07914 12.6646C8.8939 13.035 9.04407 13.4856 9.41455 13.6708C9.73563 13.8313 10.2507 14.1077 10.6758 14.4256C10.8288 14.54 10.956 14.6495 11.0539 14.75H7.60313C5.88809 14.75 4.84421 13.8014 4.57422 12.8564C4.43921 12.3839 4.48466 11.8896 4.73964 11.4407C4.99579 10.9896 5.49671 10.5284 6.36647 10.2022C6.72766 10.0668 6.9272 9.67945 6.82781 9.30673Z" fill="white"/>
</svg>
