<svg width="24" height="24" viewBox="0 0 24 24" fill="none" xmlns="http://www.w3.org/2000/svg">
<path fill-rule="evenodd" clip-rule="evenodd" d="M4 10C4 5.5 7.58172 2 12 2C16.4183 2 20 5.5 20 10C20 13.4271 17.68 15.6942 16.5737 16.5804C16.2275 16.8578 16 17.2695 16 17.7132C16 18.4239 15.4239 19 14.7132 19H9.2868C8.57612 19 8 18.4239 8 17.7132C8 17.2695 7.77254 16.8578 7.42628 16.5804C6.31999 15.6942 4 13.4271 4 10ZM5.5 10C5.5 6.33842 8.40012 3.5 12 3.5C15.5999 3.5 18.5 6.33842 18.5 10C18.5 12.7258 16.638 14.6069 15.6359 15.4098C15.0375 15.8891 14.5738 16.6275 14.508 17.5H9.49199C9.42623 16.6275 8.96247 15.8891 8.3641 15.4098C7.36196 14.6069 5.5 12.7258 5.5 10Z" fill="white"/>
<path d="M9.1233 19.7602C8.71472 19.6921 8.3283 19.9681 8.2602 20.3767C8.19211 20.7853 8.46812 21.1717 8.8767 21.2398C10.9446 21.5845 13.0554 21.5845 15.1233 21.2398C15.5319 21.1717 15.8079 20.7853 15.7398 20.3767C15.6717 19.9681 15.2853 19.6921 14.8767 19.7602C12.972 20.0776 11.028 20.0776 9.1233 19.7602Z" fill="white"/>
</svg>
