<svg width="35" height="35" viewBox="0 0 35 35" fill="none" xmlns="http://www.w3.org/2000/svg">
<path d="M30.9025 10.8634L14.0275 27.7384C13.9296 27.8364 13.8133 27.9142 13.6852 27.9673C13.5572 28.0204 13.42 28.0477 13.2813 28.0477C13.1427 28.0477 13.0055 28.0204 12.8775 27.9673C12.7494 27.9142 12.6331 27.8364 12.5352 27.7384L5.15234 20.3555C4.95444 20.1576 4.84326 19.8892 4.84326 19.6094C4.84326 19.3295 4.95444 19.0611 5.15234 18.8632C5.35025 18.6653 5.61866 18.5541 5.89854 18.5541C6.17841 18.5541 6.44682 18.6653 6.64473 18.8632L13.2813 25.5011L29.4102 9.37097C29.6081 9.17307 29.8765 9.06189 30.1563 9.06189C30.4362 9.06189 30.7046 9.17307 30.9025 9.37097C31.1004 9.56887 31.2116 9.83729 31.2116 10.1172C31.2116 10.397 31.1004 10.6655 30.9025 10.8634Z" fill="#222222"/>
</svg>
