<svg width="24" height="24" viewBox="0 0 24 24" fill="none" xmlns="http://www.w3.org/2000/svg">
<path d="M5.05489 3.2456C4.98903 3.17135 4.90908 3.11092 4.81969 3.0678C4.7303 3.02468 4.63324 2.99973 4.53413 2.9944C4.43503 2.98907 4.33585 3.00346 4.24235 3.03674C4.14885 3.07002 4.06288 3.12153 3.98943 3.18828C3.91598 3.25503 3.85651 3.33569 3.81447 3.42559C3.77242 3.51549 3.74864 3.61285 3.7445 3.71201C3.74035 3.81117 3.75593 3.91017 3.79033 4.00326C3.82473 4.09636 3.87727 4.1817 3.94489 4.25435L5.51426 5.98122C4.84776 7.12523 4.49766 8.42597 4.49989 9.74997C4.49989 13.0631 3.72551 15.5981 3.2052 16.4943C3.07233 16.7222 3.00189 16.9811 3.00099 17.2448C3.00008 17.5086 3.06874 17.7679 3.20005 17.9967C3.33135 18.2254 3.52065 18.4155 3.74886 18.5478C3.97708 18.68 4.23613 18.7498 4.49989 18.75H17.1224L18.9449 20.7543C19.0108 20.8286 19.0907 20.889 19.1801 20.9321C19.2695 20.9753 19.3665 21.0002 19.4656 21.0055C19.5648 21.0109 19.6639 20.9965 19.7574 20.9632C19.8509 20.9299 19.9369 20.8784 20.0103 20.8117C20.0838 20.7449 20.1433 20.6643 20.1853 20.5744C20.2274 20.4844 20.2511 20.3871 20.2553 20.2879C20.2594 20.1888 20.2438 20.0898 20.2094 19.9967C20.175 19.9036 20.1225 19.8182 20.0549 19.7456L5.05489 3.2456ZM4.49989 17.25C5.22176 16.0087 5.99989 13.1325 5.99989 9.74997C5.99858 8.85373 6.19917 7.9687 6.58677 7.1606L15.7583 17.25H4.49989ZM15.7499 21C15.7499 21.1989 15.6709 21.3896 15.5302 21.5303C15.3896 21.671 15.1988 21.75 14.9999 21.75H8.99989C8.80098 21.75 8.61021 21.671 8.46956 21.5303C8.32891 21.3896 8.24989 21.1989 8.24989 21C8.24989 20.8011 8.32891 20.6103 8.46956 20.4696C8.61021 20.329 8.80098 20.25 8.99989 20.25H14.9999C15.1988 20.25 15.3896 20.329 15.5302 20.4696C15.6709 20.6103 15.7499 20.8011 15.7499 21ZM20.0624 16.8047C19.9748 16.8386 19.8817 16.8561 19.7877 16.8562C19.6371 16.8561 19.49 16.8106 19.3655 16.7256C19.2411 16.6407 19.1452 16.5202 19.0902 16.38C18.4077 14.6428 17.9999 12.164 17.9999 9.74997C18.0002 8.70054 17.7252 7.66939 17.2025 6.75943C16.6797 5.84947 15.9274 5.09254 15.0207 4.56418C14.114 4.03583 13.0846 3.75452 12.0352 3.74836C10.9857 3.74219 9.95307 4.01137 9.0402 4.52903C8.86759 4.62256 8.66519 4.64468 8.47645 4.59064C8.28772 4.5366 8.12769 4.41071 8.03074 4.24C7.93379 4.06929 7.90764 3.86737 7.9579 3.67759C8.00816 3.48781 8.13084 3.32531 8.29958 3.22497C9.44059 2.57777 10.7314 2.24115 12.0432 2.24872C13.3549 2.25629 14.6418 2.60778 15.7752 3.26811C16.9087 3.92844 17.8492 4.87451 18.5027 6.01189C19.1563 7.14927 19.5001 8.43818 19.4999 9.74997C19.4999 13.064 20.2546 15.2428 20.4861 15.8325C20.5588 16.0176 20.555 16.224 20.4756 16.4063C20.3961 16.5886 20.2475 16.7319 20.0624 16.8047Z" fill="#222222"/>
</svg>
