<svg width="131" height="131" viewBox="0 0 131 131" fill="none" xmlns="http://www.w3.org/2000/svg">
<rect width="131" height="131" rx="24" fill="#5496FF"/>
<path d="M19 85.5C19 78.5964 24.5964 73 31.5 73C38.4036 73 44 78.5964 44 85.5V131H19V85.5Z" fill="#FFF6F0"/>
<path d="M53 54.5C53 47.5964 58.5964 42 65.5 42C72.4036 42 78 47.5964 78 54.5V131H53V54.5Z" fill="#FFF6F0"/>
<path d="M87 27.5C87 20.5964 92.5964 15 99.5 15C106.404 15 112 20.5964 112 27.5V131H87V27.5Z" fill="#FFF6F0"/>
<path d="M92.6048 103.645C92.6048 102.258 93.0753 101.086 94.0161 100.129C94.957 99.173 96.0995 98.6948 97.4435 98.6948C98.7876 98.6948 99.9301 99.173 100.871 100.129C101.812 101.086 102.282 102.258 102.282 103.645V105.767H106.718V109H92.6048V103.645ZM99.2581 103.645C99.2581 103.147 99.0833 102.736 98.7339 102.413C98.3844 102.089 97.9543 101.928 97.4435 101.928C96.9328 101.928 96.5027 102.089 96.1532 102.413C95.8038 102.736 95.629 103.147 95.629 103.645V105.767H99.2581V103.645Z" fill="#5496FF"/>
<path d="M106.718 97.1825H92V94.1515H106.718V97.1825Z" fill="#5496FF"/>
<path d="M96.6371 84.5986V81.5677H106.718V84.5986H105.77C106.59 85.3126 107 86.3162 107 87.6094C107 88.943 106.489 90.0813 105.468 91.0243C104.433 91.9672 103.169 92.4387 101.677 92.4387C100.185 92.4387 98.9288 91.9672 97.9073 91.0243C96.8723 90.0813 96.3548 88.943 96.3548 87.6094C96.3548 86.3162 96.7648 85.3126 97.5847 84.5986H96.6371ZM103.472 88.7409C103.915 88.2964 104.137 87.7172 104.137 87.0032C104.137 86.2892 103.915 85.71 103.472 85.2655C103.028 84.8209 102.43 84.5986 101.677 84.5986C100.925 84.5986 100.327 84.8209 99.8831 85.2655C99.4395 85.71 99.2177 86.2892 99.2177 87.0032C99.2177 87.7172 99.4395 88.2964 99.8831 88.7409C100.327 89.1855 100.925 89.4078 101.677 89.4078C102.43 89.4078 103.028 89.1855 103.472 88.7409Z" fill="#5496FF"/>
<path d="M96.3548 73.4236C96.3548 72.3459 96.7245 71.4501 97.4637 70.7362C98.203 70.0087 99.2245 69.645 100.528 69.645H106.718V72.676H100.972C100.38 72.676 99.9301 72.8443 99.621 73.1811C99.2984 73.5044 99.1371 73.922 99.1371 74.4339C99.1371 75.0132 99.3118 75.4712 99.6613 75.8079C100.011 76.1447 100.528 76.3131 101.214 76.3131H106.718V79.3441H96.6371V76.3131H97.5847C96.7648 75.7069 96.3548 74.7437 96.3548 73.4236Z" fill="#5496FF"/>
<path d="M96.3548 61.6431C96.3548 60.5655 96.7245 59.6697 97.4637 58.9557C98.203 58.2283 99.2245 57.8646 100.528 57.8646H106.718V60.8955H100.972C100.38 60.8955 99.9301 61.0639 99.621 61.4007C99.2984 61.724 99.1371 62.1416 99.1371 62.6535C99.1371 63.2327 99.3118 63.6907 99.6613 64.0275C100.011 64.3643 100.528 64.5326 101.214 64.5326H106.718V67.5636H96.6371V64.5326H97.5847C96.7648 63.9265 96.3548 62.9633 96.3548 61.6431Z" fill="#5496FF"/>
<path d="M102.887 53.0755C103.828 52.7253 104.298 51.917 104.298 50.6507C104.298 49.829 104.043 49.1824 103.532 48.7109L104.923 46.2862C106.308 47.283 107 48.7513 107 50.6912C107 52.3885 106.496 53.749 105.488 54.7728C104.48 55.7831 103.21 56.2883 101.677 56.2883C100.159 56.2883 98.8952 55.7899 97.8871 54.793C96.8656 53.7827 96.3548 52.4895 96.3548 50.9134C96.3548 49.4451 96.8656 48.226 97.8871 47.2561C98.8952 46.2727 100.159 45.781 101.677 45.781C102.108 45.781 102.511 45.8214 102.887 45.9023V53.0755ZM100.629 53.1361V48.7918C99.5672 49.0881 99.0363 49.8021 99.0363 50.9336C99.0363 52.1056 99.5672 52.8398 100.629 53.1361Z" fill="#5496FF"/>
<path d="M98.4315 41.0309C97.7863 40.8424 97.2957 40.4652 96.9597 39.8994C96.6102 39.3202 96.4355 38.687 96.4355 38H99.8629C99.7419 38.7409 99.8696 39.4346 100.246 40.0813C100.609 40.7144 101.247 41.0309 102.161 41.0309H106.718V44.0619H96.6371V41.0309H98.4315Z" fill="#5496FF"/>
</svg>
