<svg width="1025" height="1025" viewBox="0 0 1025 1025" fill="none" xmlns="http://www.w3.org/2000/svg">
<rect width="1025" height="1025" rx="187.786" fill="#5495FE"/>
<path d="M148.665 668.989C148.665 614.972 192.453 571.183 246.47 571.183V571.183C300.486 571.183 344.275 614.972 344.275 668.989V1025H148.665V668.989Z" fill="#FFF6F0"/>
<path d="M414.694 426.431C414.694 372.415 458.483 328.626 512.5 328.626V328.626C566.516 328.626 610.305 372.415 610.305 426.431V1025H414.694V426.431Z" fill="#FFF6F0"/>
<path d="M680.726 215.172C680.726 161.155 724.515 117.366 778.531 117.366V117.366C832.547 117.366 876.336 161.155 876.336 215.172V1025H680.726V215.172Z" fill="#FFF6F0"/>
<path d="M724.58 810.965C724.58 800.109 728.261 790.939 735.623 783.455C742.984 775.972 751.924 772.23 762.44 772.23C772.957 772.23 781.896 775.972 789.258 783.455C796.62 790.939 800.3 800.109 800.3 810.965V827.566H835.006V852.863H724.58V810.965ZM776.638 810.965C776.638 807.065 775.271 803.851 772.536 801.321C769.802 798.791 766.437 797.526 762.44 797.526C758.444 797.526 755.079 798.791 752.344 801.321C749.61 803.851 748.243 807.065 748.243 810.965V827.566H776.638V810.965Z" fill="#5495FE"/>
<path d="M835.006 760.397H719.848V736.682H835.006V760.397Z" fill="#5495FE"/>
<path d="M756.13 661.936V638.22H835.006V661.936H827.591C834.006 667.522 837.214 675.375 837.214 685.493C837.214 695.928 833.218 704.834 825.225 712.213C817.127 719.591 807.241 723.28 795.568 723.28C783.894 723.28 774.061 719.591 766.069 712.213C757.971 704.834 753.922 695.928 753.922 685.493C753.922 675.375 757.129 667.522 763.545 661.936H756.13ZM809.608 694.347C813.078 690.869 814.813 686.336 814.813 680.75C814.813 675.164 813.078 670.632 809.608 667.153C806.137 663.675 801.457 661.936 795.568 661.936C789.679 661.936 784.999 663.675 781.528 667.153C778.058 670.632 776.322 675.164 776.322 680.75C776.322 686.336 778.058 690.869 781.528 694.347C784.999 697.825 789.679 699.564 795.568 699.564C801.457 699.564 806.137 697.825 809.608 694.347Z" fill="#5495FE"/>
<path d="M753.922 574.498C753.922 566.065 756.814 559.056 762.598 553.47C768.382 547.778 776.375 544.932 786.576 544.932H835.006V568.648H790.047C785.419 568.648 781.896 569.965 779.477 572.6C776.953 575.13 775.691 578.397 775.691 582.403C775.691 586.935 777.059 590.519 779.793 593.154C782.527 595.789 786.576 597.106 791.94 597.106H835.006V620.822H756.13V597.106H763.545C757.129 592.363 753.922 584.827 753.922 574.498Z" fill="#5495FE"/>
<path d="M753.922 482.322C753.922 473.89 756.814 466.881 762.598 461.295C768.382 455.603 776.375 452.757 786.576 452.757H835.006V476.472H790.047C785.419 476.472 781.896 477.79 779.477 480.425C776.953 482.955 775.691 486.222 775.691 490.227C775.691 494.76 777.059 498.343 779.793 500.978C782.527 503.613 786.576 504.931 791.94 504.931H835.006V528.646H756.13V504.931H763.545C757.129 500.188 753.922 492.652 753.922 482.322Z" fill="#5495FE"/>
<path d="M805.033 415.285C812.395 412.545 816.075 406.221 816.075 396.313C816.075 389.883 814.077 384.824 810.081 381.135L820.966 362.163C831.798 369.962 837.214 381.451 837.214 396.629C837.214 409.91 833.27 420.555 825.383 428.566C817.495 436.471 807.557 440.424 795.568 440.424C783.684 440.424 773.798 436.524 765.911 428.724C757.918 420.819 753.922 410.7 753.922 398.368C753.922 386.88 757.918 377.341 765.911 369.752C773.798 362.057 783.684 358.21 795.568 358.21C798.933 358.21 802.088 358.526 805.033 359.159V415.285ZM787.365 415.76V381.767C779.057 384.086 774.903 389.673 774.903 398.526C774.903 407.696 779.057 413.441 787.365 415.76Z" fill="#5495FE"/>
<path d="M770.17 321.044C765.122 319.568 761.283 316.617 758.654 312.19C755.92 307.658 754.553 302.704 754.553 297.328H781.37C780.424 303.125 781.423 308.553 784.368 313.613C787.207 318.567 792.203 321.044 799.354 321.044H835.006V344.759H756.13V321.044H770.17Z" fill="#5495FE"/>
</svg>
